<?xml version="1.0" encoding="utf-8"?>
<!-- Generator: Adobe Illustrator 18.1.1, SVG Export Plug-In . SVG Version: 6.00 Build 0)  -->
<svg version="1.1" id="Layer_1" xmlns="http://www.w3.org/2000/svg" xmlns:xlink="http://www.w3.org/1999/xlink" x="0px" y="0px"
	 viewBox="0 0 600 280" enable-background="new 0 0 600 280" xml:space="preserve">
<g>
	<g>
		<path fill="#FFC122" d="M346.2,26.8c26.9,0,53.8,0,80.7,0c42.9,0,85.8,0,128.7,0c9.9,0,19.8,0,29.6,0c-0.6-0.6-1.3-1.3-1.9-1.9
			c0,27.3,0,54.7,0,82c0,43.2,0,86.4,0,129.6c0,10,0,20,0,30c0.6-0.6,1.3-1.3,1.9-1.9c-18.9,0-37.8,0-56.7,0c-45.4,0-90.8,0-136.1,0
			c-54.9,0-109.8,0-164.7,0c-47.6,0-95.2,0-142.9,0c-15.6,0-31.3,0-46.9,0c-4.9,0-9.8,0-14.7,0c-2.2,0-5.5-0.6-7.6,0
			c-0.3,0.1-0.7,0-1,0c0.6,0.6,1.3,1.3,1.9,1.9c0-27.3,0-54.7,0-82c0-43.2,0-86.4,0-129.6c0-10,0-20,0-30c-0.6,0.6-1.3,1.3-1.9,1.9
			c46.4,0,92.7,0,139.1,0c6.7,0,13.3,0,20,0c2.5,0,2.5-3.8,0-3.8c-46.4,0-92.7,0-139.1,0c-6.7,0-13.3,0-20,0c-1,0-1.9,0.9-1.9,1.9
			c0,27.3,0,54.7,0,82c0,43.2,0,86.4,0,129.6c0,10,0,20,0,30c0,1,0.9,1.9,1.9,1.9c18.9,0,37.8,0,56.7,0c45.4,0,90.8,0,136.1,0
			c54.9,0,109.8,0,164.7,0c47.6,0,95.2,0,142.9,0c15.6,0,31.3,0,46.9,0c7.3,0,15,0.8,22.3,0c0.3,0,0.6,0,1,0c1,0,1.9-0.9,1.9-1.9
			c0-27.3,0-54.7,0-82c0-43.2,0-86.4,0-129.6c0-10,0-20,0-30c0-1-0.9-1.9-1.9-1.9c-26.9,0-53.8,0-80.7,0c-42.9,0-85.8,0-128.7,0
			c-9.9,0-19.8,0-29.6,0C343.8,22.9,343.8,26.8,346.2,26.8L346.2,26.8z"/>
	</g>
</g>
<path fill="#FFFFFF" d="M431.1,101.1c0,2-0.5,3.9-1.5,5.6c-1.6,2.7-4.3,4.7-7.5,5.3c-0.4,0.1-0.9,0.1-1.3,0.1H355c-0.3,0-0.7,0-1,0
	c-0.3,0-0.7,0-1,0c-6.1,0-11.1-5-11.1-11.1c0-6.1,5-11.1,11.1-11.1c0.6,0,1.2,0,1.7,0.1c-0.4-2.6-0.2-5.3,0.6-8
	c2.9-10.1,13.5-15.9,23.6-13c5.1,1.5,9.1,4.9,11.5,9.3c2.4-1.5,5.2-2.3,8.3-2.3c8.6,0,15.7,6.9,15.9,15.5c1.6-0.9,3.5-1.5,5.6-1.5
	C426.1,90,431.1,95,431.1,101.1z"/>
<path fill="#FFFFFF" d="M564.2,44.9c0,2-0.5,3.9-1.5,5.6c-1.6,2.7-4.3,4.7-7.5,5.3c-0.4,0.1-0.9,0.1-1.3,0.1h-65.8c-0.3,0-0.7,0-1,0
	c-0.3,0-0.7,0-1,0c-6.1,0-11.1-5-11.1-11.1c0-6.1,5-11.1,11.1-11.1c0.6,0,1.2,0,1.7,0.1c-0.4-2.6-0.2-5.3,0.6-8
	c2.9-10.1,13.5-15.9,23.6-13c5.1,1.5,9.1,4.9,11.5,9.3c2.4-1.5,5.2-2.3,8.3-2.3c8.6,0,15.7,6.9,15.9,15.5c1.6-0.9,3.5-1.5,5.6-1.5
	C559.2,33.8,564.2,38.8,564.2,44.9z"/>
<path fill="#FFFFFF" d="M227.1,72.7c0,2-0.5,3.9-1.5,5.6c-1.6,2.7-4.3,4.7-7.5,5.3c-0.4,0.1-0.9,0.1-1.3,0.1H151c-0.3,0-0.7,0-1,0
	c-0.3,0-0.7,0-1,0c-6.1,0-11.1-5-11.1-11.1c0-6.1,5-11.1,11.1-11.1c0.6,0,1.2,0,1.7,0.1c-0.4-2.6-0.2-5.3,0.6-8
	c2.9-10.1,13.5-15.9,23.6-13c5.1,1.5,9.1,4.9,11.5,9.3c2.4-1.5,5.2-2.3,8.3-2.3c8.6,0,15.7,6.9,15.9,15.5c1.6-0.9,3.5-1.5,5.6-1.5
	C222.1,61.6,227.1,66.6,227.1,72.7z"/>
<line fill="none" stroke="#FFC122" stroke-width="1.1372" stroke-miterlimit="10" x1="230.2" y1="247.3" x2="264.5" y2="247.3"/>
<line fill="none" stroke="#FFC122" stroke-width="1.1372" stroke-miterlimit="10" x1="230.2" y1="247.9" x2="264.7" y2="247.9"/>
<polyline fill="#FFC122" points="218,267.9 218,143.3 277.2,143.3 277.2,267.2 "/>
<rect x="247.9" y="39" fill="#62D4D4" width="43.1" height="14.9"/>
<path fill="#205D76" d="M249.8,76.5c0,22.6-1,41-1.7,41c-0.7,0-1.7-18.4-1.7-41s1-41,1.7-41C248.7,35.5,249.8,53.9,249.8,76.5z"/>
<circle fill="#205D76" cx="248" cy="36" r="2"/>
<circle fill="#205D76" cx="248" cy="56.1" r="2.2"/>
<polygon fill="#62D4D4" points="339.5,61.5 290.3,61.5 290.3,46.6 339.5,46.6 326.7,54.4 "/>
		   <defs
     id="defs6"><clipPath
       id="clipPath16"><path
         d="M 9.12e-6,0 612.00001,0 l 0,792 -612.00000088,0 0,-792 z"
         inkscape:connector-curvature="0"
         id="path18" /></clipPath><clipPath
       id="clipPath28"><path
         d="M 9.12e-6,0 612.00001,0 l 0,792 -612.00000088,0 0,-792 z"
         inkscape:connector-curvature="0"
         id="path30" /></clipPath></defs><g
     transform="matrix(1.25,0,0,-1.25,0,990)"
     id="g10"><g
       id="g12"><g
         clip-path="url(#clipPath16)"
         id="g14"><text
           transform="matrix(1,0,0,-1,75.024,710.98)"
           id="text20"><tspan
             x="0 6.336 12.71424 18.9552 25.291201 31.55328 37.889278 44.15136 50.487358 56.749439 63.085442 69.347519 75.683517 81.945602 88.281601 94.543678 100.87968 107.14176 113.47776 119.73984 126.07584"
             y="0"
             id="tspan22"
             style="font-size:10.56000042px;font-variant:normal;font-weight:normal;writing-mode:lr-tb;fill:#000000;fill-opacity:1;fill-rule:nonzero;stroke:none;font-family:Courier 10 Pitch;-inkscape-font-specification:Courier New">SitePersian Tutorials</tspan></text>
</g></g><g
       id="g24"><g
         clip-path="url(#clipPath28)"
         id="g26" /></g></g>
<ellipse fill="#205D76" stroke="#205D76" stroke-width="0.5794" stroke-miterlimit="10" cx="248" cy="84.1" rx="4.9" ry="1.3"/>
<polygon fill="#205D76" stroke="#205D76" stroke-width="0.5794" stroke-miterlimit="10" points="248.2,83.9 265.4,113.7 
	282.6,143.5 248.2,143.5 213.7,143.5 230.9,113.7 "/>
<ellipse fill="#205D76" stroke="#205D76" stroke-width="0.5794" stroke-miterlimit="10" cx="247.9" cy="104.7" rx="15.7" ry="2.7"/>
<path fill="#205D76" stroke="#205D76" stroke-width="0.7139" stroke-miterlimit="10" d="M286.2,141.1c0,5.1-17.1,4.3-38.3,4.3
	s-38.3,0.7-38.3-4.3s17.1-9.1,38.3-9.1S286.2,136.1,286.2,141.1z"/>
<g>
	<path fill="#EA6E2F" d="M277.2,175L277.2,175c0,0.1,0,0.2,0,0.3c0,2.6-2.1,4.8-4.8,4.8c-1.8,0-3.3-1-4.1-2.4
		c-0.8,1.4-2.4,2.4-4.1,2.4c-1.8,0-3.4-1-4.2-2.6c-0.8,1.5-2.4,2.5-4.2,2.5c-1.8,0-3.4-1-4.2-2.6c-0.8,1.5-2.4,2.5-4.2,2.5
		c-1.8,0-3.4-1-4.2-2.6c-0.8,1.6-2.4,2.7-4.3,2.7c-1.8,0-3.3-1-4.1-2.4c-0.8,1.4-2.4,2.4-4.1,2.4c-1.7,0-3.1-0.9-4-2.2
		c-0.9,1.2-2.3,1.9-3.8,1.9c-2.6,0-4.8-2.1-4.8-4.8v-4.8h59.2V175z"/>
</g>
<rect x="230.7" y="193.7" fill="#FFFFFF" width="34.7" height="58.6"/>
<polygon fill="#FF5774" points="268.6,200.2 227.1,200.2 230.9,192.2 264.9,192.2 "/>
<line fill="none" stroke="#FFC122" stroke-width="1.1372" stroke-miterlimit="10" x1="237" y1="232.6" x2="237" y2="253.6"/>
<line fill="none" stroke="#FFC122" stroke-width="1.1372" stroke-miterlimit="10" x1="244.1" y1="232.8" x2="244.1" y2="253.8"/>
<line fill="none" stroke="#FFC122" stroke-width="1.1372" stroke-miterlimit="10" x1="251.5" y1="232.6" x2="251.5" y2="253.6"/>
<line fill="none" stroke="#FFC122" stroke-width="1.1372" stroke-miterlimit="10" x1="258.7" y1="232.6" x2="258.7" y2="253.6"/>
<line fill="none" stroke="#FFC122" stroke-width="1.1372" stroke-miterlimit="10" x1="229.4" y1="247.1" x2="265.8" y2="247.1"/>
<line fill="none" stroke="#FFC122" stroke-width="1.1372" stroke-miterlimit="10" x1="229.8" y1="238.1" x2="266.2" y2="238.1"/>
<g>
	<path fill="#FFC122" d="M236.7,231c0.2-0.3,0.5-0.3,0.7,0c0.2,0.3,0.5,0.8,0.7,1.1c0.2,0.3,0,0.6-0.3,0.6s-0.9,0-1.3,0
		c-0.4,0-0.5-0.3-0.3-0.6C236.2,231.9,236.5,231.4,236.7,231z"/>
	<path fill="none" stroke="#FFC122" stroke-width="0.7027" stroke-miterlimit="10" d="M236.7,231c0.2-0.3,0.5-0.3,0.7,0
		c0.2,0.3,0.5,0.8,0.7,1.1c0.2,0.3,0,0.6-0.3,0.6s-0.9,0-1.3,0c-0.4,0-0.5-0.3-0.3-0.6C236.2,231.9,236.5,231.4,236.7,231z"/>
</g>
<g>
	<path fill="#FFC122" d="M251.2,230.9c0.2-0.3,0.5-0.3,0.7,0c0.2,0.3,0.5,0.8,0.7,1.1c0.2,0.3,0,0.6-0.3,0.6c-0.4,0-0.9,0-1.3,0
		c-0.4,0-0.5-0.3-0.3-0.6C250.7,231.7,251,231.2,251.2,230.9z"/>
	<path fill="none" stroke="#FFC122" stroke-width="0.7027" stroke-miterlimit="10" d="M251.2,230.9c0.2-0.3,0.5-0.3,0.7,0
		c0.2,0.3,0.5,0.8,0.7,1.1c0.2,0.3,0,0.6-0.3,0.6c-0.4,0-0.9,0-1.3,0c-0.4,0-0.5-0.3-0.3-0.6C250.7,231.7,251,231.2,251.2,230.9z"/>
</g>
<g>
	<path fill="#FFC122" d="M243.7,230.9c0.2-0.3,0.5-0.3,0.7,0c0.2,0.3,0.5,0.8,0.7,1.1c0.2,0.3,0,0.6-0.3,0.6s-0.9,0-1.3,0
		c-0.4,0-0.5-0.3-0.3-0.6C243.3,231.7,243.6,231.2,243.7,230.9z"/>
	<path fill="none" stroke="#FFC122" stroke-width="0.7027" stroke-miterlimit="10" d="M243.7,230.9c0.2-0.3,0.5-0.3,0.7,0
		c0.2,0.3,0.5,0.8,0.7,1.1c0.2,0.3,0,0.6-0.3,0.6s-0.9,0-1.3,0c-0.4,0-0.5-0.3-0.3-0.6C243.3,231.7,243.6,231.2,243.7,230.9z"/>
</g>
<g>
	<path fill="#FFC122" d="M258.4,230.9c0.2-0.3,0.5-0.3,0.7,0c0.2,0.3,0.5,0.8,0.7,1.1c0.2,0.3,0,0.6-0.3,0.6c-0.4,0-0.9,0-1.3,0
		c-0.4,0-0.5-0.3-0.3-0.6C257.9,231.7,258.2,231.2,258.4,230.9z"/>
	<path fill="none" stroke="#FFC122" stroke-width="0.7027" stroke-miterlimit="10" d="M258.4,230.9c0.2-0.3,0.5-0.3,0.7,0
		c0.2,0.3,0.5,0.8,0.7,1.1c0.2,0.3,0,0.6-0.3,0.6c-0.4,0-0.9,0-1.3,0c-0.4,0-0.5-0.3-0.3-0.6C257.9,231.7,258.2,231.2,258.4,230.9z"
		/>
</g>
<path fill="#FFFFFF" d="M117.3,128.4c0,2-0.5,3.9-1.5,5.6c-1.6,2.7-4.3,4.7-7.5,5.3c-0.4,0.1-0.9,0.1-1.3,0.1H41.2c-0.3,0-0.7,0-1,0
	c-0.3,0-0.7,0-1,0c-6.1,0-11.1-5-11.1-11.1c0-6.1,5-11.1,11.1-11.1c0.6,0,1.2,0,1.7,0.1c-0.4-2.6-0.2-5.3,0.6-8
	c2.9-10.1,13.5-15.9,23.6-13c5.1,1.5,9.1,4.9,11.5,9.3c2.4-1.5,5.2-2.3,8.3-2.3c8.6,0,15.7,6.9,15.9,15.5c1.6-0.9,3.5-1.5,5.6-1.5
	C112.3,117.3,117.3,122.3,117.3,128.4z"/>
</svg>
